<svg width="32" height="33" viewBox="0 0 32 33" fill="none" xmlns="http://www.w3.org/2000/svg">
<g clip-path="url(#clip0_4914_576)">
<path d="M23.5733 32.2993H8.71732C5.30417 32.2993 2.52734 29.5265 2.52734 26.1182V6.83329C2.52734 3.42505 5.30417 0.652222 8.71732 0.652222H21.5221C23.1755 0.652222 24.7299 1.29518 25.8991 2.46266L27.9502 4.51088C29.1194 5.67836 29.7633 7.23055 29.7633 8.88158V9.30572C29.7633 9.98849 29.209 10.5419 28.5253 10.5419H23.5733C21.5254 10.5419 19.8593 8.87824 19.8593 6.83329V3.12465H8.71732C6.66943 3.12465 5.00333 4.78835 5.00333 6.83329V26.1182C5.00333 28.1632 6.66943 29.8269 8.71732 29.8269H23.5733C25.6211 29.8269 27.2872 28.1632 27.2872 26.1182V14.2506C27.2872 13.5678 27.8415 13.0144 28.5252 13.0144C29.209 13.0144 29.7632 13.5678 29.7632 14.2506V26.1182C29.7632 29.5265 26.9864 32.2993 23.5733 32.2993ZM22.3353 3.21329V6.83329C22.3353 7.51494 22.8906 8.06951 23.5733 8.06951H27.1985C27.047 7.38897 26.7051 6.76407 26.1994 6.25913L24.1483 4.21091C23.6426 3.70598 23.0168 3.36454 22.3353 3.21329Z" fill="#7158DC"/>
<path d="M23.5734 22.409H22.3354V14.2505C22.3354 13.5678 21.7812 13.0144 21.0974 13.0144C20.4137 13.0144 19.8594 13.5678 19.8594 14.2505V22.409H17.3835V16.7228C17.3835 16.0401 16.8292 15.4867 16.1455 15.4867C15.4617 15.4867 14.9075 16.0401 14.9075 16.7228V22.409H12.4315V19.195C12.4315 18.5123 11.8772 17.9589 11.1935 17.9589C10.5097 17.9589 9.95548 18.5123 9.95548 19.195V22.409H8.71749C8.03374 22.409 7.47949 22.9624 7.47949 23.6451C7.47949 24.3278 8.03374 24.8812 8.71749 24.8812H23.5734C24.2572 24.8812 24.8114 24.3278 24.8114 23.6451C24.8114 22.9624 24.2572 22.409 23.5734 22.409Z" fill="#7158DC"/>
<path d="M13.6695 10.5417H8.71749C8.03374 10.5417 7.47949 9.9883 7.47949 9.30559C7.47949 8.62287 8.03374 8.06946 8.71749 8.06946H13.6695C14.3532 8.06946 14.9075 8.62287 14.9075 9.30559C14.9075 9.9883 14.3532 10.5417 13.6695 10.5417Z" fill="#7158DC"/>
</g>
<defs>
<clipPath id="clip0_4914_576">
<rect width="31.6656" height="31.6411" fill="white" transform="translate(0.148438 0.623901)"/>
</clipPath>
</defs>
</svg>
