<svg width="32" height="32" viewBox="0 0 32 32" fill="none" xmlns="http://www.w3.org/2000/svg">
<g clip-path="url(#clip0_4914_554)">
<path d="M15.241 7.29195C15.4827 7.53331 15.7995 7.65401 16.1164 7.65401C16.4332 7.65401 16.75 7.53331 16.9918 7.29195L21.9438 2.34739C22.4273 1.86461 22.4273 1.08195 21.9438 0.59924C21.4603 0.116528 20.6764 0.116466 20.193 0.59924L16.1164 4.66973L14.5157 3.07152C14.0322 2.58875 13.2484 2.58875 12.7649 3.07152C12.2815 3.55429 12.2814 4.33696 12.7649 4.81967L15.241 7.29195Z" fill="#7158DC"/>
<path d="M30.7245 9.63257H20.6432C17.7548 9.63257 16.2075 11.5306 16.116 11.593C16.0276 11.5326 14.4664 9.63257 11.5888 9.63257H1.50754C0.823787 9.63257 0.269531 10.186 0.269531 10.8688V18.516C0.269531 18.8595 0.412645 19.1876 0.664579 19.4214L12.4796 30.3904C13.4535 31.3542 14.7439 31.8847 16.116 31.8847C17.4881 31.8847 18.7785 31.3542 19.7524 30.3904L31.5675 19.4214C31.8194 19.1875 31.9625 18.8595 31.9625 18.516V10.8688C31.9625 10.186 31.4083 9.63257 30.7245 9.63257ZM18.051 28.594C17.4855 29.1184 16.9076 29.4122 16.116 29.4122C15.3244 29.4122 14.7452 29.1172 14.181 28.594L2.74555 17.9774V12.105H11.5888C12.5809 12.105 13.5136 12.4908 14.2151 13.1913L14.3652 13.3413L10.5186 17.1823C10.0354 17.6648 10.0352 18.4479 10.5186 18.9306C12.9319 21.3404 16.8586 21.3404 19.2719 18.9306L19.6173 18.5857L24.0565 23.0186L18.051 28.594ZM29.4865 17.9774L25.871 21.334L21.368 16.8374L21.5175 16.6882C22.001 16.2053 22.001 15.4226 21.5175 14.9399C21.034 14.4571 20.2502 14.4571 19.7667 14.9399L17.5211 17.1823C16.38 18.3217 14.675 18.5631 13.2949 17.9066L18.0171 13.1912C18.7185 12.4908 19.6512 12.105 20.6432 12.105H29.4865V17.9774Z" fill="#7158DC"/>
</g>
<defs>
<clipPath id="clip0_4914_554">
<rect width="31.666" height="31.6415" fill="white" transform="translate(0.118164 0.208496)"/>
</clipPath>
</defs>
</svg>
