<svg width="32" height="32" viewBox="0 0 32 32" fill="none" xmlns="http://www.w3.org/2000/svg">
<g clip-path="url(#clip0_4914_564)">
<rect x="0.149414" y="0.623901" width="31.6927" height="30.6524" rx="6" fill="url(#paint0_linear_4914_564)"/>
<path d="M14.9107 7.92497C14.9107 7.24226 14.3564 6.68884 13.6727 6.68884H7.43428C6.75054 6.68884 6.19629 7.24226 6.19629 7.92497C6.19629 8.60768 6.75054 9.1611 7.43428 9.1611H13.6726C14.3564 9.1611 14.9107 8.60768 14.9107 7.92497Z" fill="#7158DC"/>
<path d="M7.43428 11.9968C6.75054 11.9968 6.19629 12.5502 6.19629 13.233C6.19629 13.9157 6.75054 14.4691 7.43428 14.4691H9.26621C9.94995 14.4691 10.5042 13.9157 10.5042 13.233C10.5042 12.5502 9.94995 11.9968 9.26621 11.9968H7.43428Z" fill="#7158DC"/>
<path d="M30.6041 18.8234C31.2878 18.8234 31.8421 18.27 31.8421 17.5872V6.34305C31.8421 3.61646 29.6206 1.39819 26.8901 1.39819H5.10139C2.37087 1.39819 0.149414 3.61646 0.149414 6.34305V23.7996C0.149414 26.5262 2.37087 28.7445 5.10139 28.7445H26.8901C29.6206 28.7445 31.8421 26.5262 31.8421 23.7996V23.7683C31.8421 23.0855 31.2878 22.5321 30.6041 22.5321C29.9203 22.5321 29.3661 23.0855 29.3661 23.7683V23.7996C29.3661 25.1629 28.2554 26.2721 26.8901 26.2721H25.9107C25.8801 26.2202 25.8482 26.1691 25.815 26.1189C25.8207 25.9823 25.8235 25.8457 25.8235 25.71C25.8235 25.574 25.8207 25.4372 25.815 25.3003C26.5223 24.2269 26.5852 22.8083 25.9306 21.6709L24.4555 19.1083C23.8427 18.0434 22.6991 17.3819 21.4711 17.3819C21.3995 17.3819 21.328 17.3842 21.2564 17.3886C21.0284 17.2437 20.7942 17.1079 20.5552 16.9822C19.9808 15.8299 18.7841 15.065 17.4709 15.065H14.5204C13.2073 15.065 12.0106 15.8299 11.4361 16.9822C11.1971 17.1079 10.9629 17.2437 10.7349 17.3886C10.6633 17.3842 10.5918 17.3819 10.5202 17.3819C9.29225 17.3819 8.14872 18.0434 7.53597 19.1082L6.06065 21.6711C5.40674 22.8072 5.46976 24.2251 6.17641 25.2986C6.17071 25.4361 6.1678 25.5735 6.1678 25.71C6.1678 25.8457 6.17065 25.9822 6.17628 26.1189C6.14304 26.1691 6.11123 26.2201 6.08065 26.272H5.10139C3.73613 26.272 2.6254 25.1629 2.6254 23.7996V6.34305C2.6254 4.97975 3.73613 3.87062 5.10139 3.87062H26.8901C28.2554 3.87062 29.3661 4.97975 29.3661 6.34305V17.5872C29.3661 18.27 29.9203 18.8234 30.6041 18.8234ZM13.6839 26.2721C13.6401 26.089 13.6176 25.9002 13.6176 25.71C13.6176 24.3918 14.6844 23.3194 15.9957 23.3194C17.307 23.3194 18.3737 24.3918 18.3737 25.71C18.3737 25.9002 18.3512 26.089 18.3074 26.2721H13.6839ZM8.64385 25.71C8.64385 25.4831 8.65444 25.2527 8.6753 25.0253C8.70755 24.673 8.58709 24.3236 8.34438 24.0659C8.04974 23.753 7.99341 23.2749 8.20734 22.9032L9.68272 20.3402C9.85517 20.0405 10.1761 19.8544 10.5202 19.8544C10.5943 19.8544 10.669 19.8633 10.7423 19.8809C11.0906 19.9646 11.4579 19.8935 11.7496 19.6862C12.1196 19.4233 12.5157 19.1935 12.927 19.0034C13.2496 18.8542 13.4925 18.5739 13.5937 18.2336C13.7156 17.8238 14.0967 17.5375 14.5205 17.5375H17.4709C17.8948 17.5375 18.2759 17.8238 18.3978 18.2336C18.4991 18.5739 18.7419 18.8542 19.0644 19.0033C19.4758 19.1935 19.8718 19.4233 20.2418 19.6862C20.5336 19.8935 20.9009 19.9646 21.2491 19.8809C21.3224 19.8633 21.3971 19.8544 21.4712 19.8544C21.8154 19.8544 22.1363 20.0406 22.3088 20.3403L23.784 22.9031C23.9985 23.2755 23.9424 23.7539 23.6478 24.0663C23.4047 24.3242 23.284 24.6737 23.3163 25.0263C23.3371 25.2532 23.3476 25.4832 23.3476 25.71C23.3476 25.8964 23.3405 26.0848 23.3265 26.2721H20.8171C20.8387 26.086 20.8497 25.8983 20.8497 25.71C20.8497 23.0285 18.6722 20.8469 15.9957 20.8469C13.3191 20.8469 11.1416 23.0285 11.1416 25.71C11.1416 25.8983 11.1526 26.086 11.1742 26.2721H8.66496C8.65097 26.0848 8.64385 25.8963 8.64385 25.71Z" fill="#7158DC"/>
</g>
<defs>
<linearGradient id="paint0_linear_4914_564" x1="15.9089" y1="-15.6862" x2="34.8765" y2="21.6963" gradientUnits="userSpaceOnUse">
<stop stop-color="#AC6AFF" stop-opacity="0.36"/>
<stop offset="0.729167" stop-color="white" stop-opacity="0"/>
</linearGradient>
<clipPath id="clip0_4914_564">
<rect x="0.149414" y="0.623901" width="31.6927" height="30.6524" rx="6" fill="white"/>
</clipPath>
</defs>
</svg>
