<svg width="76" height="76" viewBox="0 0 76 76" fill="none" xmlns="http://www.w3.org/2000/svg">
<path fill-rule="evenodd" clip-rule="evenodd" d="M57.625 35.75C47.7529 35.75 39.75 27.7471 39.75 17.875V2C39.75 0.895431 38.8546 0 37.75 0C36.6454 0 35.75 0.895432 35.75 2V17.875C35.75 27.7471 27.7471 35.75 17.875 35.75H2C0.895431 35.75 0 36.6454 0 37.75C0 38.8546 0.895432 39.75 2 39.75H17.875C27.7471 39.75 35.75 47.7529 35.75 57.625V73.5C35.75 74.6046 36.6454 75.5 37.75 75.5C38.8546 75.5 39.75 74.6046 39.75 73.5V57.625C39.75 47.7529 47.7529 39.75 57.625 39.75H73.5C74.6046 39.75 75.5 38.8546 75.5 37.75C75.5 36.6454 74.6046 35.75 73.5 35.75H57.625Z" fill="url(#paint0_linear_4901_1348)"/>
<defs>
<linearGradient id="paint0_linear_4901_1348" x1="30.2993" y1="1.28081e-06" x2="88.5833" y2="31.9373" gradientUnits="userSpaceOnUse">
<stop offset="0.14" stop-color="#FF82FE"/>
<stop offset="1" stop-color="#4E5DFE"/>
</linearGradient>
</defs>
</svg>
